<?xml version="1.0" encoding="UTF-8" standalone="no"?>
<!-- Created with Inkscape (http://www.inkscape.org/) -->

<svg
   xmlns:dc="http://purl.org/dc/elements/1.1/"
   xmlns:cc="http://creativecommons.org/ns#"
   xmlns:rdf="http://www.w3.org/1999/02/22-rdf-syntax-ns#"
   xmlns:svg="http://www.w3.org/2000/svg"
   xmlns="http://www.w3.org/2000/svg"
   xmlns:sodipodi="http://sodipodi.sourceforge.net/DTD/sodipodi-0.dtd"
   xmlns:inkscape="http://www.inkscape.org/namespaces/inkscape"
   width="23.386mm"
   height="23.386mm"
   viewBox="0 0 23.385999 23.386"
   version="1.1"
   id="svg8"
   inkscape:version="0.92.4 (5da689c313, 2019-01-14)"
   sodipodi:docname="ELN_logo_2.svg">
  <defs
     id="defs2">
    <inkscape:perspective
       id="perspective2625"
       inkscape:persp3d-origin="372.04723 : 350.78737 : 1"
       inkscape:vp_z="744.09447 : 526.18106 : 1"
       inkscape:vp_y="0 : 999.99995 : 0"
       inkscape:vp_x="0 : 526.18106 : 1"
       sodipodi:type="inkscape:persp3d" />
    <inkscape:perspective
       sodipodi:type="inkscape:persp3d"
       inkscape:vp_x="0 : 526.18106 : 1"
       inkscape:vp_y="0 : 999.99995 : 0"
       inkscape:vp_z="744.09447 : 526.18106 : 1"
       inkscape:persp3d-origin="372.04723 : 350.78737 : 1"
       id="perspective2636" />
    <inkscape:perspective
       sodipodi:type="inkscape:persp3d"
       inkscape:vp_x="0 : 526.18106 : 1"
       inkscape:vp_y="0 : 999.99995 : 0"
       inkscape:vp_z="744.09447 : 526.18106 : 1"
       inkscape:persp3d-origin="372.04723 : 350.78737 : 1"
       id="perspective2443" />
    <inkscape:perspective
       sodipodi:type="inkscape:persp3d"
       inkscape:vp_x="0 : 526.18106 : 1"
       inkscape:vp_y="0 : 999.99995 : 0"
       inkscape:vp_z="744.09447 : 526.18106 : 1"
       inkscape:persp3d-origin="372.04723 : 350.78737 : 1"
       id="perspective2568" />
    <inkscape:perspective
       sodipodi:type="inkscape:persp3d"
       inkscape:vp_x="0 : 526.18106 : 1"
       inkscape:vp_y="0 : 999.99995 : 0"
       inkscape:vp_z="744.09447 : 526.18106 : 1"
       inkscape:persp3d-origin="372.04723 : 350.78737 : 1"
       id="perspective2735" />
    <inkscape:perspective
       sodipodi:type="inkscape:persp3d"
       inkscape:vp_x="0 : 526.18106 : 1"
       inkscape:vp_y="0 : 999.99995 : 0"
       inkscape:vp_z="744.09447 : 526.18106 : 1"
       inkscape:persp3d-origin="372.04723 : 350.78737 : 1"
       id="perspective2858" />
  </defs>
  <sodipodi:namedview
     id="base"
     pagecolor="#ffffff"
     bordercolor="#666666"
     borderopacity="1.0"
     inkscape:pageopacity="0.0"
     inkscape:pageshadow="2"
     inkscape:zoom="11.313708"
     inkscape:cx="64.361863"
     inkscape:cy="39.034393"
     inkscape:document-units="mm"
     inkscape:current-layer="g955"
     showgrid="false"
     inkscape:window-width="1920"
     inkscape:window-height="1017"
     inkscape:window-x="1912"
     inkscape:window-y="32"
     inkscape:window-maximized="1"
     fit-margin-top="0"
     fit-margin-left="0"
     fit-margin-right="0"
     fit-margin-bottom="0"
     inkscape:snap-center="true" />
  <metadata
     id="metadata5">
    <rdf:RDF>
      <cc:Work
         rdf:about="">
        <dc:format>image/svg+xml</dc:format>
        <dc:type
           rdf:resource="http://purl.org/dc/dcmitype/StillImage" />
        <dc:title />
      </cc:Work>
    </rdf:RDF>
  </metadata>
  <g
     inkscape:label="Layer 1"
     inkscape:groupmode="layer"
     id="layer1"
     style="display:none;opacity:1"
     transform="translate(-59.839395,-121.80152)"
     sodipodi:insensitive="true">
    <circle
       id="path59"
       cx="71.532394"
       cy="133.49452"
       style="fill:#c8306f;fill-opacity:1;stroke-width:0.20219177"
       r="11.693"
       inkscape:export-xdpi="543.05994"
       inkscape:export-ydpi="543.05994" />
    <path
       style="color:#000000;font-style:normal;font-variant:normal;font-weight:normal;font-stretch:normal;font-size:medium;line-height:normal;font-family:sans-serif;font-variant-ligatures:normal;font-variant-position:normal;font-variant-caps:normal;font-variant-numeric:normal;font-variant-alternates:normal;font-feature-settings:normal;text-indent:0;text-align:start;text-decoration:none;text-decoration-line:none;text-decoration-style:solid;text-decoration-color:#000000;letter-spacing:normal;word-spacing:normal;text-transform:none;writing-mode:lr-tb;direction:ltr;text-orientation:mixed;dominant-baseline:auto;baseline-shift:baseline;text-anchor:start;white-space:normal;shape-padding:0;clip-rule:nonzero;display:inline;overflow:visible;visibility:visible;opacity:1;isolation:auto;mix-blend-mode:normal;color-interpolation:sRGB;color-interpolation-filters:linearRGB;solid-color:#000000;solid-opacity:1;vector-effect:none;fill:#000000;fill-opacity:0.34806632;fill-rule:nonzero;stroke:none;stroke-width:0.26610735;stroke-linecap:butt;stroke-linejoin:miter;stroke-miterlimit:4;stroke-dasharray:none;stroke-dashoffset:0;stroke-opacity:1;color-rendering:auto;image-rendering:auto;shape-rendering:auto;text-rendering:auto;enable-background:accumulate"
       d="m 77.688081,129.92287 -2.419227,0.44907 -0.20648,6.63523 -6.617844,0.017 -0.52535,2.55539 5.426528,5.45908 a 11.693,11.693 0 0 0 9.744332,-9.8681 z"
       id="rect4880"
       inkscape:connector-curvature="0"
       inkscape:export-xdpi="543.05994"
       inkscape:export-ydpi="543.05994" />
    <g
       transform="matrix(0.26764114,0,0,0.26458238,64.573502,126.6154)"
       id="g4724"
       style="fill:#ffffff"
       inkscape:export-xdpi="543.05994"
       inkscape:export-ydpi="543.05994">
      <rect
         id="rect4684"
         y="17.5"
         x="3"
         width="7"
         height="2"
         style="fill:#ffffff" />
      <rect
         id="rect4686"
         y="22.5"
         x="3"
         width="7"
         height="2"
         style="fill:#ffffff" />
      <rect
         id="rect4688"
         y="27.5"
         x="3"
         width="7"
         height="2"
         style="fill:#ffffff" />
      <rect
         id="rect4690"
         y="32.5"
         x="3"
         width="7"
         height="2"
         style="fill:#ffffff" />
      <rect
         id="rect4692"
         y="37.5"
         x="3"
         width="7"
         height="2"
         style="fill:#ffffff" />
      <g
         id="g4712"
         style="fill:#ffffff">
        <g
           id="g4698"
           style="fill:#ffffff">
          <path
             style="fill:#ffffff"
             d="m 30.189453,21.195312 v 6.998047 h -2.496094 v 32 h 32 v -2.498047 h 6.996094 v -2 h -6.996094 v -3 h 6.996094 v -2 h -6.996094 v -3 h 6.996094 v -2 h -6.996094 v -3 h 6.996094 v -2 h -6.996094 v -3 h 6.996094 v -2 h -6.996094 v -3 h 6.996094 v -2 h -6.996094 v -2.501953 h -2.503906 v -6.998047 h -2 v 6.998047 h -3 v -6.998047 h -2 v 6.998047 h -3 v -6.998047 h -2 v 6.998047 h -3 v -6.998047 h -2 v 6.998047 h -3 v -6.998047 h -2 v 6.998047 h -3 v -6.998047 z m 1.820313,13.513672 h 2.294922 v 0.927735 h 4.511718 v 6.84375 h 4.982422 c 0.0025,3.3e-5 0.0033,-0.0021 0.0059,-0.002 h 2.865234 v -1.527344 h 3.24414 c 1.915367,0 3.131407,1.497522 3.22461,3.054687 l 2.884766,-0.0078 c 0.252049,-4.54e-4 0.252056,0.376386 0,0.376953 l -2.884766,0.0078 c -0.09063,1.505273 -1.247918,2.940291 -3.087891,3.035157 v 0.01758 l -0.1875,0.002 c -1.039937,0.0015 -3.003906,0 -3.003906,0 h -0.189453 v -1.527344 h -2.863281 v 0.002 h -4.990235 v 6.835938 h -4.511718 v 0.882812 h -2.294922 v -1.804687 -0.492188 h 2.294922 v 1.03711 h 4.134765 v -6.841797 h 5.367188 v 0.0039 h 2.863281 v -2.677734 h -2.863281 v 0.002 h -5.367188 v -6.84375 h -4.134765 v 0.992187 h -2.294922 v -1.804687 z"
             transform="translate(-17.688261,-18.194268)"
             id="path4694"
             inkscape:connector-curvature="0" />
          <rect
             id="rect4696"
             y="12.5"
             x="3"
             width="7"
             height="2"
             style="fill:#ffffff" />
        </g>
        <rect
           height="7"
           width="2"
           x="37.5"
           y="42"
           id="rect4700"
           style="fill:#ffffff" />
        <rect
           height="7"
           width="2"
           x="32.5"
           y="42"
           id="rect4702"
           style="fill:#ffffff" />
        <rect
           height="7"
           width="2"
           x="27.5"
           y="42"
           id="rect4704"
           style="fill:#ffffff" />
        <rect
           height="7"
           width="2"
           x="22.5"
           y="42"
           id="rect4706"
           style="fill:#ffffff" />
        <rect
           height="7"
           width="2"
           x="17.5"
           y="42"
           id="rect4708"
           style="fill:#ffffff" />
        <rect
           height="7"
           width="2"
           x="12.5"
           y="42"
           id="rect4710"
           style="fill:#ffffff" />
      </g>
    </g>
    <g
       id="g938"
       transform="matrix(0.26458333,0,0,0.26458333,-18.803565,-0.62887993)">
      <g
         style="opacity:1"
         id="g944"
         transform="matrix(0.18193184,0,0,0.18193184,341.72828,425.88207)" />
    </g>
  </g>
  <g
     transform="translate(-59.839395,-121.80152)"
     style="display:none;opacity:1"
     id="g913"
     inkscape:groupmode="layer"
     inkscape:label="Layer 1 copy">
    <circle
       inkscape:export-ydpi="543.05994"
       inkscape:export-xdpi="543.05994"
       r="11.693"
       style="fill:#c8306f;fill-opacity:1;stroke-width:0.20219177"
       cy="133.49452"
       cx="71.532394"
       id="circle873" />
    <path
       inkscape:export-ydpi="543.05994"
       inkscape:export-xdpi="543.05994"
       inkscape:connector-curvature="0"
       id="path875"
       d="m 77.688081,129.92287 -2.419227,0.44907 -0.20648,6.63523 -6.617844,0.017 -0.52535,2.55539 5.426528,5.45908 a 11.693,11.693 0 0 0 9.744332,-9.8681 z"
       style="color:#000000;font-style:normal;font-variant:normal;font-weight:normal;font-stretch:normal;font-size:medium;line-height:normal;font-family:sans-serif;font-variant-ligatures:normal;font-variant-position:normal;font-variant-caps:normal;font-variant-numeric:normal;font-variant-alternates:normal;font-feature-settings:normal;text-indent:0;text-align:start;text-decoration:none;text-decoration-line:none;text-decoration-style:solid;text-decoration-color:#000000;letter-spacing:normal;word-spacing:normal;text-transform:none;writing-mode:lr-tb;direction:ltr;text-orientation:mixed;dominant-baseline:auto;baseline-shift:baseline;text-anchor:start;white-space:normal;shape-padding:0;clip-rule:nonzero;display:inline;overflow:visible;visibility:visible;opacity:1;isolation:auto;mix-blend-mode:normal;color-interpolation:sRGB;color-interpolation-filters:linearRGB;solid-color:#000000;solid-opacity:1;vector-effect:none;fill:#000000;fill-opacity:0.34806632;fill-rule:nonzero;stroke:none;stroke-width:0.26610735;stroke-linecap:butt;stroke-linejoin:miter;stroke-miterlimit:4;stroke-dasharray:none;stroke-dashoffset:0;stroke-opacity:1;color-rendering:auto;image-rendering:auto;shape-rendering:auto;text-rendering:auto;enable-background:accumulate" />
    <g
       inkscape:export-ydpi="543.05994"
       inkscape:export-xdpi="543.05994"
       style="fill:#ffffff"
       id="g907"
       transform="matrix(0.26764114,0,0,0.26458238,64.573502,126.6154)">
      <rect
         style="fill:#ffffff"
         height="2"
         width="7"
         x="3"
         y="17.5"
         id="rect877" />
      <rect
         style="fill:#ffffff"
         height="2"
         width="7"
         x="3"
         y="22.5"
         id="rect879" />
      <rect
         style="fill:#ffffff"
         height="2"
         width="7"
         x="3"
         y="27.5"
         id="rect881" />
      <rect
         style="fill:#ffffff"
         height="2"
         width="7"
         x="3"
         y="32.5"
         id="rect883" />
      <rect
         style="fill:#ffffff"
         height="2"
         width="7"
         x="3"
         y="37.5"
         id="rect885" />
      <g
         style="fill:#ffffff"
         id="g905">
        <g
           style="fill:#ffffff"
           id="g891">
          <path
             inkscape:connector-curvature="0"
             id="path887"
             transform="translate(-17.688261,-18.194268)"
             d="m 30.189453,21.195312 v 6.998047 h -2.496094 v 32 h 32 v -2.498047 h 6.996094 v -2 h -6.996094 v -3 h 6.996094 v -2 h -6.996094 v -3 h 6.996094 v -2 h -6.996094 v -3 h 6.996094 v -2 h -6.996094 v -3 h 6.996094 v -2 h -6.996094 v -3 h 6.996094 v -2 h -6.996094 v -2.501953 h -2.503906 v -6.998047 h -2 v 6.998047 h -3 v -6.998047 h -2 v 6.998047 h -3 v -6.998047 h -2 v 6.998047 h -3 v -6.998047 h -2 v 6.998047 h -3 v -6.998047 h -2 v 6.998047 h -3 v -6.998047 z m 4.115275,15.810637 h -2.294922 v -1.804687 l -4e-5,-0.492278 h 2.294922 l 4e-5,18.921924 h -2.294922 v -1.804687 -0.492188 h 2.294922"
             style="fill:#ffffff"
             sodipodi:nodetypes="ccccccccccccccccccccccccccccccccccccccccccccccccccccccccccccccc" />
          <rect
             style="fill:#ffffff"
             height="2"
             width="7"
             x="3"
             y="12.5"
             id="rect889" />
        </g>
        <rect
           style="fill:#ffffff"
           id="rect893"
           y="42"
           x="37.5"
           width="2"
           height="7" />
        <rect
           style="fill:#ffffff"
           id="rect895"
           y="42"
           x="32.5"
           width="2"
           height="7" />
        <rect
           style="fill:#ffffff"
           id="rect897"
           y="42"
           x="27.5"
           width="2"
           height="7" />
        <rect
           style="fill:#ffffff"
           id="rect899"
           y="42"
           x="22.5"
           width="2"
           height="7" />
        <rect
           style="fill:#ffffff"
           id="rect901"
           y="42"
           x="17.5"
           width="2"
           height="7" />
        <rect
           style="fill:#ffffff"
           id="rect903"
           y="42"
           x="12.5"
           width="2"
           height="7" />
      </g>
    </g>
    <g
       transform="matrix(0.26458333,0,0,0.26458333,-18.803565,-0.62887993)"
       id="g911">
      <g
         transform="matrix(0.18193184,0,0,0.18193184,341.72828,425.88207)"
         id="g909"
         style="opacity:1" />
    </g>
  </g>
  <g
     transform="translate(-59.839395,-121.80152)"
     style="display:inline;opacity:1"
     id="g955"
     inkscape:groupmode="layer"
     inkscape:label="Layer 1 copy 1">
    <circle
       inkscape:export-ydpi="543.05994"
       inkscape:export-xdpi="543.05994"
       r="11.693"
       style="fill:#c8306f;fill-opacity:1;stroke-width:0.20219177"
       cy="133.49452"
       cx="71.532394"
       id="circle915" />
    <path
       inkscape:export-ydpi="543.05994"
       inkscape:export-xdpi="543.05994"
       inkscape:connector-curvature="0"
       id="path917"
       d="m 77.688081,129.92287 -2.419227,0.44907 -0.20648,6.63523 -6.617844,0.017 -0.52535,2.55539 5.426528,5.45908 a 11.693,11.693 0 0 0 9.744332,-9.8681 z"
       style="color:#000000;font-style:normal;font-variant:normal;font-weight:normal;font-stretch:normal;font-size:medium;line-height:normal;font-family:sans-serif;font-variant-ligatures:normal;font-variant-position:normal;font-variant-caps:normal;font-variant-numeric:normal;font-variant-alternates:normal;font-feature-settings:normal;text-indent:0;text-align:start;text-decoration:none;text-decoration-line:none;text-decoration-style:solid;text-decoration-color:#000000;letter-spacing:normal;word-spacing:normal;text-transform:none;writing-mode:lr-tb;direction:ltr;text-orientation:mixed;dominant-baseline:auto;baseline-shift:baseline;text-anchor:start;white-space:normal;shape-padding:0;clip-rule:nonzero;display:inline;overflow:visible;visibility:visible;opacity:1;isolation:auto;mix-blend-mode:normal;color-interpolation:sRGB;color-interpolation-filters:linearRGB;solid-color:#000000;solid-opacity:1;vector-effect:none;fill:#000000;fill-opacity:0.34806632;fill-rule:nonzero;stroke:none;stroke-width:0.26610735;stroke-linecap:butt;stroke-linejoin:miter;stroke-miterlimit:4;stroke-dasharray:none;stroke-dashoffset:0;stroke-opacity:1;color-rendering:auto;image-rendering:auto;shape-rendering:auto;text-rendering:auto;enable-background:accumulate" />
    <g
       inkscape:export-ydpi="543.05994"
       inkscape:export-xdpi="543.05994"
       style="fill:#ffffff"
       id="g949"
       transform="matrix(0.26764114,0,0,0.26458238,64.573502,126.6154)">
      <rect
         style="fill:#ffffff"
         height="2"
         width="7"
         x="3"
         y="17.5"
         id="rect919" />
      <rect
         style="fill:#ffffff"
         height="2"
         width="7"
         x="3"
         y="22.5"
         id="rect921" />
      <rect
         style="fill:#ffffff"
         height="2"
         width="7"
         x="3"
         y="27.5"
         id="rect923" />
      <rect
         style="fill:#ffffff"
         height="2"
         width="7"
         x="3"
         y="32.5"
         id="rect925" />
      <rect
         style="fill:#ffffff"
         height="2"
         width="7"
         x="3"
         y="37.5"
         id="rect927" />
      <g
         style="fill:#ffffff"
         id="g947">
        <g
           style="fill:#ffffff"
           id="g933">
          <path
             inkscape:connector-curvature="0"
             id="path929"
             transform="translate(-17.688261,-18.194268)"
             d="m 30.189453,21.195312 v 6.998047 h -2.496094 v 32 h 32 v -2.498047 h 6.996094 v -2 h -6.996094 v -3 h 6.996094 v -2 h -6.996094 v -3 h 6.996094 v -2 h -6.996094 v -3 h 6.996094 v -2 h -6.996094 v -3 h 6.996094 v -2 h -6.996094 v -3 h 6.996094 v -2 h -6.996094 v -2.501953 h -2.503906 v -6.998047 h -2 v 6.998047 h -3 v -6.998047 h -2 v 6.998047 h -3 v -6.998047 h -2 v 6.998047 h -3 v -6.998047 h -2 v 6.998047 h -3 v -6.998047 h -2 v 6.998047 h -3 v -6.998047 z m 1.820313,13.513672 h 2.294922 v 0.927735 h 4.511718 v 6.84375 h 4.982422 c 0.0025,3.3e-5 0.0033,-0.0021 0.0059,-0.002 h 2.865234 v -1.527344 h 3.24414 c 1.915367,0 3.131407,1.497522 3.22461,3.054687 l 2.884766,-0.0078 c 0.252049,-4.54e-4 0.252056,0.376386 0,0.376953 l -2.884766,0.0078 c -0.09063,1.505273 -1.247918,2.940291 -3.087891,3.035157 v 0.01758 l -0.1875,0.002 c -1.039937,0.0015 -3.003906,0 -3.003906,0 h -0.189453 v -1.527344 h -2.863281 v 0.002 h -4.990235 v 6.835938 h -4.511718 v 0.882812 h -2.294922 v -1.804687 -0.492188 h 2.294922 v 1.03711 h 4.134765 v -6.841797 h 5.367188 v 0.0039 h 2.863281 v -2.677734 h -2.863281 v 0.002 h -5.367188 v -6.84375 h -4.134765 v 0.992187 h -2.294922 v -1.804687 z"
             style="fill:#ffffff"
             sodipodi:nodetypes="ccccccccccccccccccccccccccccccccccccccccccccccccccccccccccccccscccccccccccccccccccccccccccccccccccc" />
          <rect
             style="fill:#ffffff"
             height="2"
             width="7"
             x="3"
             y="12.5"
             id="rect931" />
        </g>
        <rect
           style="fill:#ffffff"
           id="rect935"
           y="42"
           x="37.5"
           width="2"
           height="7" />
        <rect
           style="fill:#ffffff"
           id="rect937"
           y="42"
           x="32.5"
           width="2"
           height="7" />
        <rect
           style="fill:#ffffff"
           id="rect939"
           y="42"
           x="27.5"
           width="2"
           height="7" />
        <rect
           style="fill:#ffffff"
           id="rect941"
           y="42"
           x="22.5"
           width="2"
           height="7" />
        <rect
           style="fill:#ffffff"
           id="rect943"
           y="42"
           x="17.5"
           width="2"
           height="7" />
        <rect
           style="fill:#ffffff"
           id="rect945"
           y="42"
           x="12.5"
           width="2"
           height="7" />
      </g>
    </g>
    <g
       transform="matrix(0.26458333,0,0,0.26458333,-18.803565,-0.62887993)"
       id="g953">
      <g
         transform="matrix(0.18193184,0,0,0.18193184,341.72828,425.88207)"
         id="g951"
         style="opacity:1" />
    </g>
    <g
       transform="matrix(0.26764114,0,0,0.26458238,64.573502,126.6154)"
       id="g987"
       style="fill:#c83737"
       inkscape:export-xdpi="543.05994"
       inkscape:export-ydpi="543.05994">
      <rect
         id="rect957"
         y="17.5"
         x="3"
         width="7"
         height="2"
         style="fill:#c83737" />
      <rect
         id="rect959"
         y="22.5"
         x="3"
         width="7"
         height="2"
         style="fill:#c83737" />
      <rect
         id="rect961"
         y="27.5"
         x="3"
         width="7"
         height="2"
         style="fill:#c83737" />
      <rect
         id="rect963"
         y="32.5"
         x="3"
         width="7"
         height="2"
         style="fill:#c83737" />
      <rect
         id="rect965"
         y="37.5"
         x="3"
         width="7"
         height="2"
         style="fill:#c83737" />
      <g
         id="g985"
         style="fill:#c83737">
        <g
           id="g971"
           style="fill:#c83737">
          <path
             style="fill:#c83737"
             d="m 32.009766,34.708984 h 2.294922 l 4e-5,18.921924 h -2.294922 v -1.804687 -0.492188 h 2.294922 V 37.005949 h -2.294922 v -1.804687 z"
             transform="translate(-17.688261,-18.194268)"
             id="path967"
             inkscape:connector-curvature="0"
             sodipodi:nodetypes="ccccccccccc" />
          <rect
             id="rect969"
             y="12.5"
             x="3"
             width="7"
             height="2"
             style="fill:#c83737" />
        </g>
        <rect
           height="7"
           width="2"
           x="37.5"
           y="42"
           id="rect973"
           style="fill:#c83737" />
        <rect
           height="7"
           width="2"
           x="32.5"
           y="42"
           id="rect975"
           style="fill:#c83737" />
        <rect
           height="7"
           width="2"
           x="27.5"
           y="42"
           id="rect977"
           style="fill:#c83737" />
        <rect
           height="7"
           width="2"
           x="22.5"
           y="42"
           id="rect979"
           style="fill:#c83737" />
        <rect
           height="7"
           width="2"
           x="17.5"
           y="42"
           id="rect981"
           style="fill:#c83737" />
        <rect
           height="7"
           width="2"
           x="12.5"
           y="42"
           id="rect983"
           style="fill:#c83737" />
      </g>
    </g>
    <g
       transform="matrix(0.26764114,0,0,0.26458238,64.573502,126.6154)"
       id="g1019"
       style="fill:#ffffff"
       inkscape:export-xdpi="543.05994"
       inkscape:export-ydpi="543.05994">
      <rect
         id="rect989"
         y="17.5"
         x="3"
         width="7"
         height="2"
         style="fill:#ffffff" />
      <rect
         id="rect991"
         y="22.5"
         x="3"
         width="7"
         height="2"
         style="fill:#ffffff" />
      <rect
         id="rect993"
         y="27.5"
         x="3"
         width="7"
         height="2"
         style="fill:#ffffff" />
      <rect
         id="rect995"
         y="32.5"
         x="3"
         width="7"
         height="2"
         style="fill:#ffffff" />
      <rect
         id="rect997"
         y="37.5"
         x="3"
         width="7"
         height="2"
         style="fill:#ffffff" />
      <g
         id="g1017"
         style="fill:#ffffff">
        <g
           id="g1003"
           style="fill:#ffffff">
          <path
             style="fill:#d35f5f"
             d="m 46.669962,42.478469 v -1.527344 h 3.24414 c 1.915367,0 3.131407,1.497522 3.22461,3.054687 v 0.376953 c -0.09063,1.505273 -1.247918,2.940291 -3.087891,3.035157 v 0.01758 l -0.1875,0.002 c -1.039937,0.0015 -3.003906,0 -3.003906,0 h -0.189453 v -1.527344 -0.376912 -2.677734 z"
             transform="translate(-17.688261,-18.194268)"
             id="path999"
             inkscape:connector-curvature="0"
             sodipodi:nodetypes="ccsccccccccccc" />
          <rect
             id="rect1001"
             y="12.5"
             x="3"
             width="7"
             height="2"
             style="fill:#ffffff" />
        </g>
        <rect
           height="7"
           width="2"
           x="37.5"
           y="42"
           id="rect1005"
           style="fill:#ffffff" />
        <rect
           height="7"
           width="2"
           x="32.5"
           y="42"
           id="rect1007"
           style="fill:#ffffff" />
        <rect
           height="7"
           width="2"
           x="27.5"
           y="42"
           id="rect1009"
           style="fill:#ffffff" />
        <rect
           height="7"
           width="2"
           x="22.5"
           y="42"
           id="rect1011"
           style="fill:#ffffff" />
        <rect
           height="7"
           width="2"
           x="17.5"
           y="42"
           id="rect1013"
           style="fill:#ffffff" />
        <rect
           height="7"
           width="2"
           x="12.5"
           y="42"
           id="rect1015"
           style="fill:#ffffff" />
      </g>
    </g>
    <g
       transform="matrix(0.26764114,0,0,0.26458238,64.573502,126.6154)"
       id="g1051"
       style="fill:#ffffff"
       inkscape:export-xdpi="543.05994"
       inkscape:export-ydpi="543.05994">
      <rect
         id="rect1021"
         y="17.5"
         x="3"
         width="7"
         height="2"
         style="fill:#ffffff" />
      <rect
         id="rect1023"
         y="22.5"
         x="3"
         width="7"
         height="2"
         style="fill:#ffffff" />
      <rect
         id="rect1025"
         y="27.5"
         x="3"
         width="7"
         height="2"
         style="fill:#ffffff" />
      <rect
         id="rect1027"
         y="32.5"
         x="3"
         width="7"
         height="2"
         style="fill:#ffffff" />
      <rect
         id="rect1029"
         y="37.5"
         x="3"
         width="7"
         height="2"
         style="fill:#ffffff" />
      <g
         id="g1049"
         style="fill:#ffffff">
        <g
           id="g1035"
           style="fill:#ffffff">
          <path
             sodipodi:nodetypes="ccccccccccccccccccccccccccccccccccccccccccccccccccccccccccccccscccccccccccccccccccccccccccccccccccc"
             style="fill:#ffffff"
             d="m 30.189453,21.195312 v 6.998047 h -2.496094 v 32 h 32 v -2.498047 h 6.996094 v -2 h -6.996094 v -3 h 6.996094 v -2 h -6.996094 v -3 h 6.996094 v -2 h -6.996094 v -3 h 6.996094 v -2 h -6.996094 v -3 h 6.996094 v -2 h -6.996094 v -3 h 6.996094 v -2 h -6.996094 v -2.501953 h -2.503906 v -6.998047 h -2 v 6.998047 h -3 v -6.998047 h -2 v 6.998047 h -3 v -6.998047 h -2 v 6.998047 h -3 v -6.998047 h -2 v 6.998047 h -3 v -6.998047 h -2 v 6.998047 h -3 v -6.998047 z m 1.820313,13.513672 h 2.294922 v 0.927735 h 4.511718 v 6.84375 h 4.982422 c 0.0025,3.3e-5 0.0033,-0.0021 0.0059,-0.002 h 2.865234 v -1.527344 h 3.24414 c 1.915367,0 3.131407,1.497522 3.22461,3.054687 l 2.884766,-0.0078 c 0.252049,-4.54e-4 0.252056,0.376386 0,0.376953 l -2.884766,0.0078 c -0.09063,1.505273 -1.247918,2.940291 -3.087891,3.035157 v 0.01758 l -0.1875,0.002 c -1.039937,0.0015 -3.003906,0 -3.003906,0 h -0.189453 v -1.527344 h -2.863281 v 0.002 h -4.990235 v 6.835938 h -4.511718 v 0.882812 h -2.294922 v -1.804687 -0.492188 h 2.294922 v 1.03711 h 4.134765 v -6.841797 h 5.367188 v 0.0039 h 2.863281 v -2.677734 h -2.863281 v 0.002 h -5.367188 v -6.84375 h -4.134765 v 0.992187 h -2.294922 v -1.804687 z"
             transform="translate(-17.688261,-18.194268)"
             id="path1031"
             inkscape:connector-curvature="0" />
          <rect
             id="rect1033"
             y="12.5"
             x="3"
             width="7"
             height="2"
             style="fill:#ffffff" />
        </g>
        <rect
           height="7"
           width="2"
           x="37.5"
           y="42"
           id="rect1037"
           style="fill:#ffffff" />
        <rect
           height="7"
           width="2"
           x="32.5"
           y="42"
           id="rect1039"
           style="fill:#ffffff" />
        <rect
           height="7"
           width="2"
           x="27.5"
           y="42"
           id="rect1041"
           style="fill:#ffffff" />
        <rect
           height="7"
           width="2"
           x="22.5"
           y="42"
           id="rect1043"
           style="fill:#ffffff" />
        <rect
           height="7"
           width="2"
           x="17.5"
           y="42"
           id="rect1045"
           style="fill:#ffffff" />
        <rect
           height="7"
           width="2"
           x="12.5"
           y="42"
           id="rect1047"
           style="fill:#ffffff" />
      </g>
    </g>
  </g>
</svg>
